<?xml version="1.0" encoding="UTF-8" standalone="no"?>
<!DOCTYPE svg PUBLIC "-//W3C//DTD SVG 1.1//EN"
 "http://www.w3.org/Graphics/SVG/1.1/DTD/svg11.dtd">
<!-- Generated by graphviz version 2.43.0 (0)
 -->
<!-- Title: G Pages: 1 -->
<svg width="1812pt" height="2383pt"
 viewBox="0.00 0.00 435.00 572.00" xmlns="http://www.w3.org/2000/svg" xmlns:xlink="http://www.w3.org/1999/xlink">
<g id="graph0" class="graph" transform="scale(0.24 0.24) rotate(0) translate(4 568)">
<title>G</title>
<polygon fill="white" stroke="transparent" points="-4,4 -4,-568 431,-568 431,4 -4,4"/>
<!-- 140132126920672 -->
<g id="node1" class="node">
<title>140132126920672</title>
<polygon fill="none" stroke="black" points="97,-480.5 97,-563.5 330,-563.5 330,-480.5 97,-480.5"/>
<polygon fill="black" stroke="transparent" points="97,-480.5 97,-563.5 330,-563.5 330,-480.5 97,-480.5"/>
<polygon fill="black" stroke="transparent" points="99.5,-521 99.5,-561 328.5,-561 328.5,-521 99.5,-521"/>
<polygon fill="none" stroke="black" points="99.5,-521 99.5,-561 328.5,-561 328.5,-521 99.5,-521"/>
<text text-anchor="start" x="111.5" y="-538.2" font-family="Helvetica,sans-Serif" font-weight="bold" font-size="16.00" fill="white">input_layer</text>
<text text-anchor="start" x="211.5" y="-538.2" font-family="Helvetica,sans-Serif" font-size="16.00" fill="white"> (InputLayer)</text>
<polygon fill="white" stroke="transparent" points="99.5,-482 99.5,-519 323.5,-519 323.5,-482 99.5,-482"/>
<polygon fill="none" stroke="black" points="99.5,-482 99.5,-519 323.5,-519 323.5,-482 99.5,-482"/>
<text text-anchor="start" x="112" y="-497.8" font-family="Helvetica,sans-Serif" font-size="14.00">Output shape: </text>
<text text-anchor="start" x="217" y="-497.8" font-family="Helvetica,sans-Serif" font-weight="bold" font-size="14.00">(None, 100)</text>
</g>
<!-- 140132125621616 -->
<g id="node2" class="node">
<title>140132125621616</title>
<polygon fill="none" stroke="black" points="0,-360.5 0,-443.5 427,-443.5 427,-360.5 0,-360.5"/>
<polygon fill="black" stroke="transparent" points="0,-360.5 0,-443.5 427,-443.5 427,-360.5 0,-360.5"/>
<polygon fill="black" stroke="transparent" points="2.5,-401 2.5,-441 425.5,-441 425.5,-401 2.5,-401"/>
<polygon fill="none" stroke="black" points="2.5,-401 2.5,-441 425.5,-441 425.5,-401 2.5,-401"/>
<text text-anchor="start" x="153" y="-418.2" font-family="Helvetica,sans-Serif" font-weight="bold" font-size="16.00" fill="white">dense</text>
<text text-anchor="start" x="207" y="-418.2" font-family="Helvetica,sans-Serif" font-size="16.00" fill="white"> (Dense)</text>
<polygon fill="white" stroke="transparent" points="2.5,-362 2.5,-399 211.5,-399 211.5,-362 2.5,-362"/>
<polygon fill="none" stroke="black" points="2.5,-362 2.5,-399 211.5,-399 211.5,-362 2.5,-362"/>
<text text-anchor="start" x="13.5" y="-377.8" font-family="Helvetica,sans-Serif" font-size="14.00">Input shape: </text>
<text text-anchor="start" x="106.5" y="-377.8" font-family="Helvetica,sans-Serif" font-weight="bold" font-size="14.00">(None, 100)</text>
<polygon fill="white" stroke="transparent" points="213.5,-362 213.5,-399 425.5,-399 425.5,-362 213.5,-362"/>
<polygon fill="none" stroke="black" points="213.5,-362 213.5,-399 425.5,-399 425.5,-362 213.5,-362"/>
<text text-anchor="start" x="224.5" y="-377.8" font-family="Helvetica,sans-Serif" font-size="14.00">Output shape: </text>
<text text-anchor="start" x="329.5" y="-377.8" font-family="Helvetica,sans-Serif" font-weight="bold" font-size="14.00">(None, 20)</text>
</g>
<!-- 140132126920672&#45;&gt;140132125621616 -->
<g id="edge1" class="edge">
<title>140132126920672&#45;&gt;140132125621616</title>
<path fill="none" stroke="black" stroke-width="2" d="M213.5,-480.37C213.5,-480.37 213.5,-453.56 213.5,-453.56"/>
<polygon fill="black" stroke="black" stroke-width="2" points="217,-453.56 213.5,-443.56 210,-453.56 217,-453.56"/>
</g>
<!-- 140132125620416 -->
<g id="node3" class="node">
<title>140132125620416</title>
<polygon fill="none" stroke="black" points="4.5,-240.5 4.5,-323.5 422.5,-323.5 422.5,-240.5 4.5,-240.5"/>
<polygon fill="black" stroke="transparent" points="4.5,-240.5 4.5,-323.5 422.5,-323.5 422.5,-240.5 4.5,-240.5"/>
<polygon fill="black" stroke="transparent" points="6.5,-281 6.5,-321 420.5,-321 420.5,-281 6.5,-281"/>
<polygon fill="none" stroke="black" points="6.5,-281 6.5,-321 420.5,-321 420.5,-281 6.5,-281"/>
<text text-anchor="start" x="143" y="-298.2" font-family="Helvetica,sans-Serif" font-weight="bold" font-size="16.00" fill="white">encoder</text>
<text text-anchor="start" x="216" y="-298.2" font-family="Helvetica,sans-Serif" font-size="16.00" fill="white"> (Dense)</text>
<polygon fill="white" stroke="transparent" points="6.5,-242 6.5,-279 206.5,-279 206.5,-242 6.5,-242"/>
<polygon fill="none" stroke="black" points="6.5,-242 6.5,-279 206.5,-279 206.5,-242 6.5,-242"/>
<text text-anchor="start" x="17.5" y="-257.8" font-family="Helvetica,sans-Serif" font-size="14.00">Input shape: </text>
<text text-anchor="start" x="110.5" y="-257.8" font-family="Helvetica,sans-Serif" font-weight="bold" font-size="14.00">(None, 20)</text>
<polygon fill="white" stroke="transparent" points="208.5,-242 208.5,-279 420.5,-279 420.5,-242 208.5,-242"/>
<polygon fill="none" stroke="black" points="208.5,-242 208.5,-279 420.5,-279 420.5,-242 208.5,-242"/>
<text text-anchor="start" x="219.5" y="-257.8" font-family="Helvetica,sans-Serif" font-size="14.00">Output shape: </text>
<text text-anchor="start" x="324.5" y="-257.8" font-family="Helvetica,sans-Serif" font-weight="bold" font-size="14.00">(None, 10)</text>
</g>
<!-- 140132125621616&#45;&gt;140132125620416 -->
<g id="edge2" class="edge">
<title>140132125621616&#45;&gt;140132125620416</title>
<path fill="none" stroke="black" stroke-width="2" d="M213.5,-360.37C213.5,-360.37 213.5,-333.56 213.5,-333.56"/>
<polygon fill="black" stroke="black" stroke-width="2" points="217,-333.56 213.5,-323.56 210,-333.56 217,-333.56"/>
</g>
<!-- 140132125619456 -->
<g id="node4" class="node">
<title>140132125619456</title>
<polygon fill="none" stroke="black" points="4.5,-120.5 4.5,-203.5 422.5,-203.5 422.5,-120.5 4.5,-120.5"/>
<polygon fill="black" stroke="transparent" points="4.5,-120.5 4.5,-203.5 422.5,-203.5 422.5,-120.5 4.5,-120.5"/>
<polygon fill="black" stroke="transparent" points="6.5,-161 6.5,-201 420.5,-201 420.5,-161 6.5,-161"/>
<polygon fill="none" stroke="black" points="6.5,-161 6.5,-201 420.5,-201 420.5,-161 6.5,-161"/>
<text text-anchor="start" x="143" y="-178.2" font-family="Helvetica,sans-Serif" font-weight="bold" font-size="16.00" fill="white">dense_1</text>
<text text-anchor="start" x="216" y="-178.2" font-family="Helvetica,sans-Serif" font-size="16.00" fill="white"> (Dense)</text>
<polygon fill="white" stroke="transparent" points="6.5,-122 6.5,-159 206.5,-159 206.5,-122 6.5,-122"/>
<polygon fill="none" stroke="black" points="6.5,-122 6.5,-159 206.5,-159 206.5,-122 6.5,-122"/>
<text text-anchor="start" x="17.5" y="-137.8" font-family="Helvetica,sans-Serif" font-size="14.00">Input shape: </text>
<text text-anchor="start" x="110.5" y="-137.8" font-family="Helvetica,sans-Serif" font-weight="bold" font-size="14.00">(None, 10)</text>
<polygon fill="white" stroke="transparent" points="208.5,-122 208.5,-159 420.5,-159 420.5,-122 208.5,-122"/>
<polygon fill="none" stroke="black" points="208.5,-122 208.5,-159 420.5,-159 420.5,-122 208.5,-122"/>
<text text-anchor="start" x="219.5" y="-137.8" font-family="Helvetica,sans-Serif" font-size="14.00">Output shape: </text>
<text text-anchor="start" x="324.5" y="-137.8" font-family="Helvetica,sans-Serif" font-weight="bold" font-size="14.00">(None, 20)</text>
</g>
<!-- 140132125620416&#45;&gt;140132125619456 -->
<g id="edge3" class="edge">
<title>140132125620416&#45;&gt;140132125619456</title>
<path fill="none" stroke="black" stroke-width="2" d="M213.5,-240.37C213.5,-240.37 213.5,-213.56 213.5,-213.56"/>
<polygon fill="black" stroke="black" stroke-width="2" points="217,-213.56 213.5,-203.56 210,-213.56 217,-213.56"/>
</g>
<!-- 140132125821600 -->
<g id="node5" class="node">
<title>140132125821600</title>
<polygon fill="none" stroke="black" points="0,-0.5 0,-83.5 427,-83.5 427,-0.5 0,-0.5"/>
<polygon fill="black" stroke="transparent" points="0,-0.5 0,-83.5 427,-83.5 427,-0.5 0,-0.5"/>
<polygon fill="black" stroke="transparent" points="2.5,-41 2.5,-81 425.5,-81 425.5,-41 2.5,-41"/>
<polygon fill="none" stroke="black" points="2.5,-41 2.5,-81 425.5,-81 425.5,-41 2.5,-41"/>
<text text-anchor="start" x="143.5" y="-58.2" font-family="Helvetica,sans-Serif" font-weight="bold" font-size="16.00" fill="white">decoder</text>
<text text-anchor="start" x="216.5" y="-58.2" font-family="Helvetica,sans-Serif" font-size="16.00" fill="white"> (Dense)</text>
<polygon fill="white" stroke="transparent" points="2.5,-2 2.5,-39 202.5,-39 202.5,-2 2.5,-2"/>
<polygon fill="none" stroke="black" points="2.5,-2 2.5,-39 202.5,-39 202.5,-2 2.5,-2"/>
<text text-anchor="start" x="13.5" y="-17.8" font-family="Helvetica,sans-Serif" font-size="14.00">Input shape: </text>
<text text-anchor="start" x="106.5" y="-17.8" font-family="Helvetica,sans-Serif" font-weight="bold" font-size="14.00">(None, 20)</text>
<polygon fill="white" stroke="transparent" points="204.5,-2 204.5,-39 425.5,-39 425.5,-2 204.5,-2"/>
<polygon fill="none" stroke="black" points="204.5,-2 204.5,-39 425.5,-39 425.5,-2 204.5,-2"/>
<text text-anchor="start" x="215.5" y="-17.8" font-family="Helvetica,sans-Serif" font-size="14.00">Output shape: </text>
<text text-anchor="start" x="320.5" y="-17.8" font-family="Helvetica,sans-Serif" font-weight="bold" font-size="14.00">(None, 100)</text>
</g>
<!-- 140132125619456&#45;&gt;140132125821600 -->
<g id="edge4" class="edge">
<title>140132125619456&#45;&gt;140132125821600</title>
<path fill="none" stroke="black" stroke-width="2" d="M213.5,-120.37C213.5,-120.37 213.5,-93.56 213.5,-93.56"/>
<polygon fill="black" stroke="black" stroke-width="2" points="217,-93.56 213.5,-83.56 210,-93.56 217,-93.56"/>
</g>
</g>
</svg>
